# xmcd CD database file
#
# Track frame offsets:
#	225
#	18974
#	41324
#	64522
#	80947
#	102599
#	127821
#	147703
#	170599
#
# Disc length: 2509 seconds
#
# Revision: 0
# Processed by: cddbd v1.5.2PL0 Copyright (c) Steve Scherf et al.
# Submitted via: CDex 1.51
#
DISCID=7a09ca09
DTITLE=Ted Shumate - El Toque Del Amor
DYEAR=2000
DGENRE=Jazz
TTITLE0=Solo Sin Ti (Lonely Without You)
TTITLE1=Playa De Passagrille (Passagrille Beach)
TTITLE2=El Toque Del Amor (The Touch of Love)
TTITLE3=Hangin' On
TTITLE4=Todo Contigo (Everything With You)
TTITLE5=Una Para Wes (One For Wes)
TTITLE6=Tone Poems
TTITLE7=Un Beso Para Ti (A Kiss For You)
TTITLE8=Aventuras En Venezuela (Venezuelan Adventures)
EXTD=YEAR: 2000
EXTT0=
EXTT1=
EXTT2=
EXTT3=
EXTT4=
EXTT5=
EXTT6=
EXTT7=
EXTT8=
PLAYORDER=
